<?xml version="1.0" encoding="UTF-8" standalone="no"?>
<svg
   height="14"
   viewBox="0 0 14 14"
   width="14"
   version="1.1"
   id="svg1"
   sodipodi:docname="item-missing-symbolic.svg"
   inkscape:version="1.4.3 (0d15f75042, 2025-12-25)"
   xmlns:inkscape="http://www.inkscape.org/namespaces/inkscape"
   xmlns:sodipodi="http://sodipodi.sourceforge.net/DTD/sodipodi-0.dtd"
   xmlns="http://www.w3.org/2000/svg"
   xmlns:svg="http://www.w3.org/2000/svg">
  <defs
     id="defs1" />
  <sodipodi:namedview
     id="namedview1"
     pagecolor="#505050"
     bordercolor="#ffffff"
     borderopacity="1"
     inkscape:showpageshadow="0"
     inkscape:pageopacity="0"
     inkscape:pagecheckerboard="1"
     inkscape:deskcolor="#505050"
     showgrid="false"
     inkscape:zoom="49.625"
     inkscape:cx="6.9924433"
     inkscape:cy="6.9924433"
     inkscape:window-width="1920"
     inkscape:window-height="1005"
     inkscape:window-x="0"
     inkscape:window-y="35"
     inkscape:window-maximized="1"
     inkscape:current-layer="svg1" />
  <path
     d="M 3,0 C 1.355469,0 0,1.355469 0,3 V 4 H 1 V 3 C 1,1.890625 1.890625,1 3,1 H 4 V 0 Z M 5,0 V 1 H 9 V 0 Z m 5,0 v 1 h 1 c 1.109375,0 2,0.890625 2,2 v 1 h 1 V 3 C 14,1.355469 12.644531,0 11,0 Z M 6.96875,2 C 6.917969,2 6.867188,2 6.8125,2.003906 5.171875,2.097656 3.910156,3.363281 4,5.003906 h 2 c -0.03125,-0.5625 0.375,-0.96875 0.9375,-1 0.566406,-0.03125 1.03125,0.375 1.0625,0.9375 v 0.03125 C 8.003906,5.101562 7.96875,5.296875 7.875,5.410156 7.648438,5.683594 7.394531,5.90625 7.1875,6.066406 6.960938,6.238281 6.714844,6.449219 6.46875,6.753906 6.226562,7.058594 6,7.5 6,8.003906 c -0.00391,0.527344 0.472656,1 1,1 0.527344,0 1.003906,-0.46875 1,-0.992187 0.00391,0 0.011719,-0.011719 0.03125,-0.039063 0.050781,-0.0625 0.1875,-0.167968 0.375,-0.3125 C 9.625,6.738281 10,6.21875 10,4.816406 9.914062,3.226562 8.546875,1.992188 6.96875,2 Z M 0,5 V 9 H 1 V 5 Z m 13,0 v 4 h 1 V 5 Z M 0,10 v 1 c 0,1.644531 1.355469,3 3,3 H 4 V 13 H 3 C 1.890625,13 1,12.109375 1,11 v -1 z m 13,0 v 1 c 0,1.109375 -0.890625,2 -2,2 h -1 v 1 h 1 c 1.644531,0 3,-1.355469 3,-3 v -1 z m -6,0.0039 c -0.550781,0 -1,0.449219 -1,1 0,0.550782 0.449219,1 1,1 0.554688,0 1,-0.449218 1,-1 0,-0.550781 -0.445312,-1 -1,-1 z M 5,13 v 1 h 4 v -1 z m 0,0"
     fill="#222222"
     fill-opacity="0.34902"
     id="path1"
     style="fill:#808080" />
</svg>
